# xmcd
#
# Track frame offsets:
#	150
#	14646
#	33077
#	45815
#	63854
#	78054
#	90517
#	109682
#	126079
#	140112
#	154651
#	170608
#	184172
#	198211
#
# Disc length: 2893 seconds
#
# Revision: 1
# Processed by: cddbd v1.5.2PL0 Copyright (c) Steve Scherf et al.
# Submitted via: audiograbber 1.83.01
#
DISCID=a80b4b0e
DTITLE=The Gallus Brothers - In The Shack
DYEAR=2014
DGENRE=Country Blues
TTITLE0=Bow Wow Blues
TTITLE1=See See Rider
TTITLE2=Soap on a Rope
TTITLE3=C.C.&O. Blues
TTITLE4=Police Sergeant Blues
TTITLE5=Duck's Eyeball
TTITLE6=Staggerin' Blues
TTITLE7=Take a Drink on Me
TTITLE8=Rabbit on a Log
TTITLE9=Stone Rag
TTITLE10=Heart Like a Rock
TTITLE11=Baby, you Done Me Wrong
TTITLE12=Old Yeller Dog
TTITLE13=I Got Mine
EXTD=
EXTT0=
EXTT1=
EXTT2=
EXTT3=
EXTT4=
EXTT5=
EXTT6=
EXTT7=
EXTT8=
EXTT9=
EXTT10=
EXTT11=
EXTT12=
EXTT13=
PLAYORDER=
